<?xml version="1.0" encoding="UTF-8"?>
<svg width="24px" height="24px" viewBox="0 0 24 24" version="1.1" xmlns="http://www.w3.org/2000/svg" xmlns:xlink="http://www.w3.org/1999/xlink">
    <title>map_icon</title>
    <g id="Page-1" stroke="none" stroke-width="1" fill="none" fill-rule="evenodd">
        <g id="map_icon">
            <polygon id="Path" points="24 24 0 24 0 0 24 0"></polygon>
            <circle id="Oval" fill="#FFFFFF" fill-rule="nonzero" cx="12" cy="12" r="11.8"></circle>
            <path d="M16.3,11.9 C16.4,10.3 15.7,8.9 14.5,7.8 C14.1,7.5 13.8,7.5 13.5,7.8 L12.5,8.6 C12.2,8.8 12.2,9.2 12.5,9.4 C13.2,10.1 13.6,10.9 13.6,11.9 C13.6,12.8 13,13.7 12.3,14.3 C12,14.5 12,14.9 12.3,15.1 L13.2,15.9 C13.5,16.1 13.9,16.2 14.2,15.9 C15.4,14.8 16.2,13.5 16.3,11.9 M22,11.8 C22,8.9 20.8,6.3 18.8,4.4 C18.8,4.4 18.5,4.1 18.3,4.1 C18.1,4.1 18,4.1 17.8,4.3 C17.8,4.3 16.7,5.2 16.4,5.4 C16.3,5.5 16.1,5.6 16.2,5.8 C16.2,5.9 16.5,6.1 16.7,6.3 C18.3,7.6 19.2,9.6 19.2,11.7 C19.2,14 18.1,16.1 16.3,17.4 C16.2,17.5 16,17.6 16,17.6 C15.9,17.7 15.8,17.8 15.8,18 C15.8,18.2 15.9,18.3 15.9,18.3 L17.2,19.5 L17.2,19.5 C17.3,19.6 17.5,19.7 17.7,19.7 C17.9,19.7 18,19.6 18.2,19.5 L18.2,19.5 C20.6,17.8 22,14.9 22,11.8" id="Shape" fill="#29A8E0" fill-rule="nonzero"></path>
            <path d="M15.1,19.4 C14.1,19.8 13.1,20 12,20 C7.6,20 4,16.4 4,12 C4,7.6 7.6,4 12,4 C13.2,4 14.3,4.3 15.4,4.7 L15.5,4.7 L17.2,3.3 C15.6,2.5 13.9,2 12,2 C6.5,2 2,6.5 2,12 C2,17.5 6.5,22 12,22 C13.7,22 15.3,21.6 16.7,20.8 L15.1,19.4 Z" id="Path" fill="#898A89" fill-rule="nonzero"></path>
        </g>
    </g>
</svg>